<?xml version="1.0" encoding="utf-8"?><svg xmlns="http://www.w3.org/2000/svg" xmlns:xlink="http://www.w3.org/1999/xlink" width="1435" height="955" preserveAspectRatio="xMidYMid" viewBox="0 0 1435 955" style="z-index:1;margin-right:-2px;display:block;background-repeat-y:initial;background-repeat-x:initial;background-color:rgb(241, 242, 243);animation-play-state:paused" ><g transform="translate(717.5,477.5) scale(1,1) translate(-717.5,-477.5)" style="transform:matrix(1, 0, 0, 1, 0, 0);animation-play-state:paused" ><path id="path0" d="M 906.9665752035942 821.3756406942756
c 0 28.760586432803102 -7.037164765473099 8.261019507294508 -15.298184272767607 8.261019507294508
S 876.370206658059 850.1362271270787 876.370206658059 821.3756406942756
s 7.037164765473099 -8.261019507294508 15.298184272767607 -8.261019507294508
S 906.9665752035942 792.6150542614726 906.9665752035942 821.3756406942756
z" fill="none" stroke="none" style="animation-play-state:paused" ></path>


<circle cx="0" cy="0" r="8.2685823678961" fill="#d9534f" opacity="0.9" transform="translate(876.4175415039062 825.1549072265625)" style="opacity:0.9;animation-play-state:paused" ></circle>
<path id="path1" d="M 509.5109760242831 756.1032215054439
c 0 23.46065029296287 -5.740371880193043 6.738697424574442 -12.479069304767485 6.738697424574442
S 484.55283741474807 779.5638717984068 484.55283741474807 756.1032215054439
s 5.740371880193043 -6.738697424574442 12.479069304767485 -6.738697424574442
S 509.5109760242831 732.642571212481 509.5109760242831 756.1032215054439
z" fill="none" stroke="none" style="animation-play-state:paused" ></path>


<circle cx="0" cy="0" r="10.059263353151705" fill="#f0ad4e" opacity="0.9" transform="translate(484.735595703125 750.0029907226562)" style="opacity:0.9;animation-play-state:paused" ></circle>
<path id="path2" d="M 727.6154764793738 394.68220435191
c 0 32.57992801325658 -7.971684513881928 9.358064429339656 -17.329748943221585 9.358064429339656
S 692.9559785929306 427.26213236516656 692.9559785929306 394.68220435191
s 7.971684513881928 -9.358064429339656 17.329748943221585 -9.358064429339656
S 727.6154764793738 362.10227633865344 727.6154764793738 394.68220435191
z" fill="none" stroke="none" style="animation-play-state:paused" ></path>


<circle cx="0" cy="0" r="14.287637031760696" fill="#337ab7" opacity="0.9" transform="translate(693.3932495117188 384.1869201660156)" style="opacity:0.9;animation-play-state:paused" ></circle>
<path id="path3" d="M 1006.9580777641452 526.0580309204576
c 0 22.8470399510336 -5.59023317950822 6.562447645509652 -12.152680825017871 6.562447645509652
S 982.6527161141094 548.9050708714911 982.6527161141094 526.0580309204576
s 5.59023317950822 -6.562447645509652 12.152680825017871 -6.562447645509652
S 1006.9580777641452 503.21099096942396 1006.9580777641452 526.0580309204576
z" fill="none" stroke="none" style="animation-play-state:paused" ></path>


<circle cx="0" cy="0" r="10.816014076165422" fill="#f0ad4e" opacity="0.9" transform="translate(1006.0880737304688 536.4129028320312)" style="opacity:0.9;animation-play-state:paused" ></circle>
<path id="path4" d="M 1303.5842846759253 916.6336966596627
c 0 19.60643419257719 -4.797319004566758 5.631635353187065 -10.428954357753824 5.631635353187065
S 1282.7263759604177 936.24013085224 1282.7263759604177 916.6336966596627
s 4.797319004566758 -5.631635353187065 10.428954357753824 -5.631635353187065
S 1303.5842846759253 897.0272624670855 1303.5842846759253 916.6336966596627
z" fill="none" stroke="none" style="animation-play-state:paused" ></path>


<circle cx="0" cy="0" r="13.87658897180603" fill="#5bc0de" opacity="0.9" transform="translate(1284.877197265625 906.1751708984375)" style="opacity:0.9;animation-play-state:paused" ></circle>
<path id="path5" d="M 467.83100401061876 415.15272796973426
c 0 24.442589069051753 -5.9806334956190454 7.0207436687701845 -13.001377164389229 7.0207436687701845
S 441.8282496818403 439.595317038786 441.8282496818403 415.15272796973426
s 5.9806334956190454 -7.0207436687701845 13.001377164389229 -7.0207436687701845
S 467.83100401061876 390.7101389006825 467.83100401061876 415.15272796973426
z" fill="none" stroke="none" style="animation-play-state:paused" ></path>


<circle cx="0" cy="0" r="8.251071292019171" fill="#5cb85c" opacity="0.9" transform="translate(443.0227966308594 426.92706298828125)" style="opacity:0.9;animation-play-state:paused" ></circle>
<path id="path6" d="M 679.3699519509794 59.71379242374144
c 0 24.75994785323532 -6.058285113025662 7.111899915290996 -13.17018502831666 7.111899915290996
S 653.0295818943462 84.47374027697676 653.0295818943462 59.71379242374144
s 6.058285113025662 -7.111899915290996 13.17018502831666 -7.111899915290996
S 679.3699519509794 34.95384457050612 679.3699519509794 59.71379242374144
z" fill="none" stroke="none" style="animation-play-state:paused" ></path>


<circle cx="0" cy="0" r="9.70553774485119" fill="#d9534f" opacity="0.9" transform="translate(665.85791015625 66.83917236328125)" style="opacity:0.9;animation-play-state:paused" ></circle>
<path id="path7" d="M 1202.0414169048254 827.1636603944977
c 0 23.858591722946976 -5.83774052795511 6.852999750208173 -12.690740278163284 6.852999750208173
S 1176.6599363484988 851.0222521174446 1176.6599363484988 827.1636603944977
s 5.83774052795511 -6.852999750208173 12.690740278163284 -6.852999750208173
S 1202.0414169048254 803.3050686715508 1202.0414169048254 827.1636603944977
z" fill="none" stroke="none" style="animation-play-state:paused" ></path>


<circle cx="0" cy="0" r="8.960494684495465" fill="#337ab7" opacity="0.9" transform="translate(1190.0767822265625 820.248779296875)" style="opacity:0.9;animation-play-state:paused" ></circle>
<path id="path8" d="M 812.8709514611621 30.68138163092526
c 0 20.50834236825733 -5.017998664573602 5.890694084499446 -10.908692749073047 5.890694084499446
S 791.0535659630161 51.18972399918259 791.0535659630161 30.68138163092526
s 5.017998664573602 -5.890694084499446 10.908692749073047 -5.890694084499446
S 812.8709514611621 10.173039262667928 812.8709514611621 30.68138163092526
z" fill="none" stroke="none" style="animation-play-state:paused" ></path>


<circle cx="0" cy="0" r="14.422480130665898" fill="#5bc0de" opacity="0.9" transform="translate(806.640380859375 22.422409057617188)" style="opacity:0.9;animation-play-state:paused" ></circle>
<path id="path9" d="M 343.427132602045 759.8861463103949
c 0 27.97304003914319 -6.844467243620142 8.034809372945384 -14.879276616565527 8.034809372945384
S 313.668579368914 787.859186349538 313.668579368914 759.8861463103949
s 6.844467243620142 -8.034809372945384 14.879276616565527 -8.034809372945384
S 343.427132602045 731.9131062712518 343.427132602045 759.8861463103949
z" fill="none" stroke="none" style="animation-play-state:paused" ></path>


<circle cx="0" cy="0" r="10.987563289613107" fill="#5cb85c" opacity="0.9" transform="translate(342.6802062988281 771.326171875)" style="opacity:0.9;animation-play-state:paused" ></circle>
<path id="path10" d="M 690.9808004339717 562.7943673662437
c 0 23.175836766842014 -5.6706834642273005 6.656889284092919 -12.327572748320218 6.656889284092919
S 666.3256549373313 585.9702041330858 666.3256549373313 562.7943673662437
s 5.6706834642273005 -6.656889284092919 12.327572748320218 -6.656889284092919
S 690.9808004339717 539.6185305994017 690.9808004339717 562.7943673662437
z" fill="none" stroke="none" style="animation-play-state:paused" ></path>


<circle cx="0" cy="0" r="8.876410388709678" fill="#f0ad4e" opacity="0.9" transform="translate(690.6768798828125 570.1950073242188)" style="opacity:0.9;animation-play-state:paused" ></circle>
<path id="path11" d="M 935.497306741501 535.9511226058671
c 0 28.227731277634806 -6.9067853126127705 8.10796536698021 -15.01475067959298 8.10796536698021
S 905.467805382315 564.1788538835019 905.467805382315 535.9511226058671
s 6.9067853126127705 -8.10796536698021 15.01475067959298 -8.10796536698021
S 935.497306741501 507.7233913282323 935.497306741501 535.9511226058671
z" fill="none" stroke="none" style="animation-play-state:paused" ></path>


<circle cx="0" cy="0" r="10.2452343604459" fill="#d9534f" opacity="0.9" transform="translate(915.0025634765625 525.3692016601562)" style="opacity:0.9;animation-play-state:paused" ></circle>
<path id="path12" d="M 1011.6982596011815 564.3262991413138
c 0 31.855141459236602 -7.794343123004699 9.1498810574403 -16.944224180445 9.1498810574403
S 977.8098112402915 596.1814406005504 977.8098112402915 564.3262991413138
s 7.794343123004699 -9.1498810574403 16.944224180445 -9.1498810574403
S 1011.6982596011815 532.4711576820772 1011.6982596011815 564.3262991413138
z" fill="none" stroke="none" style="animation-play-state:paused" ></path>


<circle cx="0" cy="0" r="8.251989838783476" fill="#337ab7" opacity="0.9" transform="translate(1005.2831420898438 548.7330322265625)" style="opacity:0.9;animation-play-state:paused" ></circle>
<path id="path13" d="M 740.3901842892958 169.06619130063902
c 0 29.538707437233107 -7.227556075067675 8.484522348992488 -15.712078424060163 8.484522348992488
S 708.9660274411756 198.60489873787213 708.9660274411756 169.06619130063902
s 7.227556075067675 -8.484522348992488 15.712078424060163 -8.484522348992488
S 740.3901842892958 139.5274838634059 740.3901842892958 169.06619130063902
z" fill="none" stroke="none" style="animation-play-state:paused" ></path>


<circle cx="0" cy="0" r="8.28234260210838" fill="#5cb85c" opacity="0.9" transform="translate(714.44677734375 154.25950622558594)" style="opacity:0.9;animation-play-state:paused" ></circle>
<path id="path14" d="M 551.1184493750281 121.09414638556017
c 0 31.899906808876743 -7.80529634685282 9.162739189783746 -16.968035536636567 9.162739189783746
S 517.1823783017551 152.9940531944369 517.1823783017551 121.09414638556017
s 7.80529634685282 -9.162739189783746 16.968035536636567 -9.162739189783746
S 551.1184493750281 89.19423957668343 551.1184493750281 121.09414638556017
z" fill="none" stroke="none" style="animation-play-state:paused" ></path>


<circle cx="0" cy="0" r="14.942227200220485" fill="#5bc0de" opacity="0.9" transform="translate(542.96337890625 135.2669677734375)" style="opacity:0.9;animation-play-state:paused" ></circle>
<path id="path15" d="M 669.6605742457817 19.894910971694
c 0 21.18545855468649 -5.183676029338184 6.085184904005695 -11.268860933343879 6.085184904005695
S 647.1228523790941 41.080369526380494 647.1228523790941 19.894910971694
s 5.183676029338184 -6.085184904005695 11.268860933343879 -6.085184904005695
S 669.6605742457817 -1.2905475829924917 669.6605742457817 19.894910971694
z" fill="none" stroke="none" style="animation-play-state:paused" ></path>


<circle cx="0" cy="0" r="10.492618315062765" fill="#d9534f" opacity="0.9" transform="translate(655.28564453125 27.103681564331055)" style="opacity:0.9;animation-play-state:paused" ></circle>
<path id="path16" d="M 1024.271318681024 335.26611180881844
c 0 35.567563372857244 -8.702701676337409 10.216215011352613 -18.91891668769002 10.216215011352613
S 986.433485305644 370.8336751816757 986.433485305644 335.26611180881844
s 8.702701676337409 -10.216215011352613 18.91891668769002 -10.216215011352613
S 1024.271318681024 299.6985484359612 1024.271318681024 335.26611180881844
z" fill="none" stroke="none" style="animation-play-state:paused" ></path>


<circle cx="0" cy="0" r="8.714170385909846" fill="#5bc0de" opacity="0.9" transform="translate(1023.9151000976562 345.5009765625)" style="opacity:0.9;animation-play-state:paused" ></circle>
<path id="path17" d="M 1406.4419157456407 284.76139391631733
c 0 31.30710810701639 -7.660249855972095 8.992467222228113 -16.652717078200208 8.992467222228113
S 1373.1364815892405 316.06850202333374 1373.1364815892405 284.76139391631733
s 7.660249855972095 -8.992467222228113 16.652717078200208 -8.992467222228113
S 1406.4419157456407 253.45428580930093 1406.4419157456407 284.76139391631733
z" fill="none" stroke="none" style="animation-play-state:paused" ></path>


<circle cx="0" cy="0" r="11.829911223789457" fill="#d9534f" opacity="0.9" transform="translate(1406.3658447265625 279.85198974609375)" style="opacity:0.9;animation-play-state:paused" ></circle>
<path id="path18" d="M 1053.452057816948 243.68655588353653
c 0 32.56117031738008 -7.9670948648908695 9.352676580524065 -17.319771445414936 9.352676580524065
S 1018.812514926118 276.2477262009166 1018.812514926118 243.68655588353653
s 7.9670948648908695 -9.352676580524065 17.319771445414936 -9.352676580524065
S 1053.452057816948 211.12538556615644 1053.452057816948 243.68655588353653
z" fill="none" stroke="none" style="animation-play-state:paused" ></path>


<circle cx="0" cy="0" r="14.855638265522932" fill="#5bc0de" opacity="0.9" transform="translate(1027.3330078125 229.390380859375)" style="opacity:0.9;animation-play-state:paused" ></circle>
<path id="path19" d="M 685.0513823759966 845.0806434026473
c 0 20.17773413440489 -4.937105160545877 5.795732144988638 -10.732837305534515 5.795732144988638
S 663.5857077649275 865.2583775370522 663.5857077649275 845.0806434026473
s 4.937105160545877 -5.795732144988638 10.732837305534515 -5.795732144988638
S 685.0513823759966 824.9029092682424 685.0513823759966 845.0806434026473
z" fill="none" stroke="none" style="animation-play-state:paused" ></path>


<circle cx="0" cy="0" r="14.130771866589134" fill="#5bc0de" opacity="0.9" transform="translate(683.4810791015625 855.6146850585938)" style="opacity:0.9;animation-play-state:paused" ></circle>
<path id="path20" d="M 745.5058740119176 241.40069736220374
c 0 28.232205027048256 -6.907879953426701 8.109250380109605 -15.017130333536306 8.109250380109605
S 715.471613344845 269.632902389252 715.471613344845 241.40069736220374
s 6.907879953426701 -8.109250380109605 15.017130333536306 -8.109250380109605
S 745.5058740119176 213.1684923351555 745.5058740119176 241.40069736220374
z" fill="none" stroke="none" style="animation-play-state:paused" ></path>


<circle cx="0" cy="0" r="9.042614446116295" fill="#f0ad4e" opacity="0.9" transform="translate(724.5283203125 230.43118286132812)" style="opacity:0.9;animation-play-state:paused" ></circle>
<path id="path21" d="M 1003.8798550492842 464.27231777773636
c 0 37.08008676913812 -9.072787188193368 10.65066322092265 -19.72345040911602 10.65066322092265
S 964.4329542310521 501.3524045468745 964.4329542310521 464.27231777773636
s 9.072787188193368 -10.65066322092265 19.72345040911602 -10.65066322092265
S 1003.8798550492842 427.19223100859824 1003.8798550492842 464.27231777773636
z" fill="none" stroke="none" style="animation-play-state:paused" ></path>


<circle cx="0" cy="0" r="8.872188915532359" fill="#d9534f" opacity="0.9" transform="translate(976.5336303710938 478.5121154785156)" style="opacity:0.9;animation-play-state:paused" ></circle>
<path id="path22" d="M 320.97690587551193 827.9154154760708
c 0 32.39451373631361 -7.926317190800139 9.304807137026252 -17.23112432782639 9.304807137026252
S 286.5146572198592 860.3099292123844 286.5146572198592 827.9154154760708
s 7.926317190800139 -9.304807137026252 17.23112432782639 -9.304807137026252
S 320.97690587551193 795.5209017397573 320.97690587551193 827.9154154760708
z" fill="none" stroke="none" style="animation-play-state:paused" ></path>


<circle cx="0" cy="0" r="15.329418915377323" fill="#f0ad4e" opacity="0.9" transform="translate(319.0498962402344 811.674560546875)" style="opacity:0.9;animation-play-state:paused" ></circle>
<path id="path23" d="M 625.6786861445387 380.29437622344193
c 0 19.188985113397205 -4.695177208597188 5.51172976661409 -10.206906975211279 5.51172976661409
S 605.2648721941162 399.48336133683915 605.2648721941162 380.29437622344193
s 4.695177208597188 -5.51172976661409 10.206906975211279 -5.51172976661409
S 625.6786861445387 361.1053911100447 625.6786861445387 380.29437622344193
z" fill="none" stroke="none" style="animation-play-state:paused" ></path>


<circle cx="0" cy="0" r="11.587063703461464" fill="#337ab7" opacity="0.9" transform="translate(619.8397827148438 388.01416015625)" style="opacity:0.9;animation-play-state:paused" ></circle>
<path id="path24" d="M 1141.7301517638264 390.86201294479923
c 0 19.235805726239565 -4.706633315994787 5.525178240515619 -10.231811556510406 5.525178240515619
S 1121.2665286508056 410.0978186710388 1121.2665286508056 390.86201294479923
s 4.706633315994787 -5.525178240515619 10.231811556510406 -5.525178240515619
S 1141.7301517638264 371.62620721855967 1141.7301517638264 390.86201294479923
z" fill="none" stroke="none" style="animation-play-state:paused" ></path>


<circle cx="0" cy="0" r="10.791745482658548" fill="#f0ad4e" opacity="0.9" transform="translate(1133.6201171875 396.9891052246094)" style="opacity:0.9;animation-play-state:paused" ></circle>
<path id="path25" d="M 1069.8838831302678 628.9525038389272
c 0 29.19808873820732 -7.144213201901791 8.386685063102103 -15.530898265003895 8.386685063102103
S 1038.8220866002598 658.1505925771345 1038.8220866002598 628.9525038389272
s 7.144213201901791 -8.386685063102103 15.530898265003895 -8.386685063102103
S 1069.8838831302678 599.7544151007199 1069.8838831302678 628.9525038389272
z" fill="none" stroke="none" style="animation-play-state:paused" ></path>


<circle cx="0" cy="0" r="13.979619171368327" fill="#f0ad4e" opacity="0.9" transform="translate(1046.3289794921875 616.0170288085938)" style="opacity:0.9;animation-play-state:paused" ></circle>
<path id="path26" d="M 1085.969315274222 859.4304523988474
c 0 32.017780876373244 -7.834137874006218 9.196596634702953 -17.03073450870917 9.196596634702953
S 1051.9078462568036 891.4482332752206 1051.9078462568036 859.4304523988474
s 7.834137874006218 -9.196596634702953 17.03073450870917 -9.196596634702953
S 1085.969315274222 827.4126715224742 1085.969315274222 859.4304523988474
z" fill="none" stroke="none" style="animation-play-state:paused" ></path>


<circle cx="0" cy="0" r="10.804336828270806" fill="#d9534f" opacity="0.9" transform="translate(1079.673583984375 843.6412963867188)" style="opacity:0.9;animation-play-state:paused" ></circle>
<path id="path27" d="M 1315.02226538928 464.0357754284645
c 0 25.37408198666088 -6.208551975459576 7.288300145104722 -13.496852120564299 7.288300145104722
S 1288.0285611481515 489.4098574151254 1288.0285611481515 464.0357754284645
s 6.208551975459576 -7.288300145104722 13.496852120564299 -7.288300145104722
S 1315.02226538928 438.6616934418036 1315.02226538928 464.0357754284645
z" fill="none" stroke="none" style="animation-play-state:paused" ></path>


<circle cx="0" cy="0" r="11.07365622631361" fill="#337ab7" opacity="0.9" transform="translate(1288.0362548828125 465.5041809082031)" style="opacity:0.9;animation-play-state:paused" ></circle>
<path id="path28" d="M 678.2334197014246 833.5149398424279
c 0 34.849364837196184 -8.526972247399065 10.009923942598904 -18.53689618999797 10.009923942598904
S 641.1596273214287 868.3643046796241 641.1596273214287 833.5149398424279
s 8.526972247399065 -10.009923942598904 18.53689618999797 -10.009923942598904
S 678.2334197014246 798.6655750052317 678.2334197014246 833.5149398424279
z" fill="none" stroke="none" style="animation-play-state:paused" ></path>


<circle cx="0" cy="0" r="8.570081965547955" fill="#5bc0de" opacity="0.9" transform="translate(641.275634765625 839.8121948242188)" style="opacity:0.9;animation-play-state:paused" ></circle>
<path id="path29" d="M 827.9063499939622 939.0474354861493
c 0 21.429483954761526 -5.243384371909735 6.155277306154907 -11.398661678064641 6.155277306154907
S 805.1090266378329 960.4769194409108 805.1090266378329 939.0474354861493
s 5.243384371909735 -6.155277306154907 11.398661678064641 -6.155277306154907
S 827.9063499939622 917.6179515313878 827.9063499939622 939.0474354861493
z" fill="none" stroke="none" style="animation-play-state:paused" ></path>


<circle cx="0" cy="0" r="14.25906865346827" fill="#5bc0de" opacity="0.9" transform="translate(827.5370483398438 946.615478515625)" style="opacity:0.9;animation-play-state:paused" ></circle>
<path id="path30" d="M 389.0836413033097 812.3837018030248
c 0 24.000080092950686 -5.872360022743253 6.893640026698602 -12.766000049441855 6.893640026698602
S 363.551641204426 836.3837818959755 363.551641204426 812.3837018030248
s 5.872360022743253 -6.893640026698602 12.766000049441855 -6.893640026698602
S 389.0836413033097 788.3836217100741 389.0836413033097 812.3837018030248
z" fill="none" stroke="none" style="animation-play-state:paused" ></path>


<circle cx="0" cy="0" r="14.082718505679068" fill="#d9534f" opacity="0.9" transform="translate(374.99755859375 805.2919921875)" style="opacity:0.9;animation-play-state:paused" ></circle>
<path id="path31" d="M 827.9812927707957 519.4159846946192
c 0 31.448784851708005 -7.694915442439192 9.033161606341661 -16.728077048780854 9.033161606341661
S 794.525138673234 550.8647695463271 794.525138673234 519.4159846946192
s 7.694915442439192 -9.033161606341661 16.728077048780854 -9.033161606341661
S 827.9812927707957 487.96719984291116 827.9812927707957 519.4159846946192
z" fill="none" stroke="none" style="animation-play-state:paused" ></path>


<circle cx="0" cy="0" r="12.134531241850983" fill="#f0ad4e" opacity="0.9" transform="translate(794.655517578125 525.6759033203125)" style="opacity:0.9;animation-play-state:paused" ></circle>
<path id="path32" d="M 1307.2126106099877 212.24597434687632
c 0 30.336699536428608 -7.422809461041042 8.71373284556992 -16.136542306610963 8.71373284556992
S 1274.939525996766 242.58267388330492 1274.939525996766 212.24597434687632
s 7.422809461041042 -8.71373284556992 16.136542306610963 -8.71373284556992
S 1307.2126106099877 181.90927481044773 1307.2126106099877 212.24597434687632
z" fill="none" stroke="none" style="animation-play-state:paused" ></path>


<circle cx="0" cy="0" r="10.672740198330196" fill="#d9534f" opacity="0.9" transform="translate(1285.333251953125 200.9878692626953)" style="opacity:0.9;animation-play-state:paused" ></circle>
<path id="path33" d="M 85.47779545890238 183.24647265015832
c 0 25.510548520527184 -6.241942723107714 7.327497979300361 -13.569440702408075 7.327497979300361
S 58.33891405408623 208.7570211706855 58.33891405408623 183.24647265015832
s 6.241942723107714 -7.327497979300361 13.569440702408075 -7.327497979300361
S 85.47779545890238 157.73592412963114 85.47779545890238 183.24647265015832
z" fill="none" stroke="none" style="animation-play-state:paused" ></path>


<circle cx="0" cy="0" r="13.368763750202307" fill="#337ab7" opacity="0.9" transform="translate(61.47938537597656 169.66973876953125)" style="opacity:0.9;animation-play-state:paused" ></circle>
<path id="path34" d="M 1343.33321470019 848.4820384656505
c 0 18.917986467278777 -4.6288690292277845 5.433889729963052 -10.062758759190837 5.433889729963052
S 1323.2076971818085 867.4000249329292 1323.2076971818085 848.4820384656505
s 4.6288690292277845 -5.433889729963052 10.062758759190837 -5.433889729963052
S 1343.33321470019 829.5640519983717 1343.33321470019 848.4820384656505
z" fill="none" stroke="none" style="animation-play-state:paused" ></path>


<circle cx="0" cy="0" r="13.241354850440713" fill="#f0ad4e" opacity="0.9" transform="translate(1324.4862060546875 858.1720581054688)" style="opacity:0.9;animation-play-state:paused" ></circle>
<path id="path35" d="M 128.04049226528372 561.4826715528256
c 0 19.5838418699657 -4.79179109584267 5.6251460690327 -10.416937164875371 5.6251460690327
S 107.20661793553299 581.0665134227913 107.20661793553299 561.4826715528256
s 4.79179109584267 -5.6251460690327 10.416937164875371 -5.6251460690327
S 128.04049226528372 541.89882968286 128.04049226528372 561.4826715528256
z" fill="none" stroke="none" style="animation-play-state:paused" ></path>


<circle cx="0" cy="0" r="14.48516698115958" fill="#5cb85c" opacity="0.9" transform="translate(114.42210388183594 554.59228515625)" style="opacity:0.9;animation-play-state:paused" ></circle>
<path id="path36" d="M 937.6548232335015 656.5593341943639
c 0 33.18570604427127 -8.119906798066374 9.532064502077917 -17.65197130014429 9.532064502077917
S 902.3508806332129 689.7450402386352 902.3508806332129 656.5593341943639
s 8.119906798066374 -9.532064502077917 17.65197130014429 -9.532064502077917
S 937.6548232335015 623.3736281500927 937.6548232335015 656.5593341943639
z" fill="none" stroke="none" style="animation-play-state:paused" ></path>


<circle cx="0" cy="0" r="9.07873598376079" fill="#5cb85c" opacity="0.9" transform="translate(902.7423706054688 646.3814086914062)" style="opacity:0.9;animation-play-state:paused" ></circle>
<path id="path37" d="M 948.6438691500639 505.3561636734151
c 0 32.61747114151613 -7.9808705984560735 9.36884809383974 -17.349718692295813 9.36884809383974
S 913.9444317654722 537.9736348149312 913.9444317654722 505.3561636734151
s 7.9808705984560735 -9.36884809383974 17.349718692295813 -9.36884809383974
S 948.6438691500639 472.73869253189895 948.6438691500639 505.3561636734151
z" fill="none" stroke="none" style="animation-play-state:paused" ></path>


<circle cx="0" cy="0" r="10.598316212313074" fill="#337ab7" opacity="0.9" transform="translate(928.9515991210938 515.1759643554688)" style="opacity:0.9;animation-play-state:paused" ></circle>
<path id="path38" d="M 653.1271998765261 523.9392778832527
c 0 29.75781336919166 -7.281167100972427 8.547457031576327 -15.828624132548754 8.547457031576327
S 621.4699516114287 553.6970912524444 621.4699516114287 523.9392778832527
s 7.281167100972427 -8.547457031576327 15.828624132548754 -8.547457031576327
S 653.1271998765261 494.181464514061 653.1271998765261 523.9392778832527
z" fill="none" stroke="none" style="animation-play-state:paused" ></path>


<circle cx="0" cy="0" r="14.829977482561612" fill="#337ab7" opacity="0.9" transform="translate(638.9642333984375 515.1377563476562)" style="opacity:0.9;animation-play-state:paused" ></circle>
<path id="path39" d="M 279.90667774979187 939.6207258025723
c 0 27.94727365542048 -6.838162702922032 8.027408390386734 -14.865571093308766 8.027408390386734
S 250.17553556317435 967.5679994579929 250.17553556317435 939.6207258025723
s 6.838162702922032 -8.027408390386734 14.865571093308766 -8.027408390386734
S 279.90667774979187 911.6734521471518 279.90667774979187 939.6207258025723
z" fill="none" stroke="none" style="animation-play-state:paused" ></path>


<circle cx="0" cy="0" r="10.462779763485434" fill="#d9534f" opacity="0.9" transform="translate(263.3609924316406 947.922119140625)" style="opacity:0.9;animation-play-state:paused" ></circle>
<path id="path40" d="M 1382.9234811431138 805.0767470546664
c 0 27.468638441027696 -6.721049831315287 7.889928062848381 -14.610977894163668 7.889928062848381
S 1353.7015253547866 832.5453854956941 1353.7015253547866 805.0767470546664
s 6.721049831315287 -7.889928062848381 14.610977894163668 -7.889928062848381
S 1382.9234811431138 777.6081086136387 1382.9234811431138 805.0767470546664
z" fill="none" stroke="none" style="animation-play-state:paused" ></path>


<circle cx="0" cy="0" r="12.05004226477939" fill="#d9534f" opacity="0.9" transform="translate(1382.64111328125 813.0599365234375)" style="opacity:0.9;animation-play-state:paused" ></circle>
<path id="path41" d="M 162.69471732053336 894.7985676602681
c 0 31.535089923756022 -7.716032640919026 9.057951361078858 -16.773984001997885 9.057951361078858
S 129.14674931653758 926.3336575840241 129.14674931653758 894.7985676602681
s 7.716032640919026 -9.057951361078858 16.773984001997885 -9.057951361078858
S 162.69471732053336 863.2634777365121 162.69471732053336 894.7985676602681
z" fill="none" stroke="none" style="animation-play-state:paused" ></path>


<circle cx="0" cy="0" r="13.79484481711932" fill="#d9534f" opacity="0.9" transform="translate(155.21812438964844 880.28369140625)" style="opacity:0.9;animation-play-state:paused" ></circle>
<path id="path42" d="M 741.7950571998167 345.3447202177655
c 0 21.296073072428747 -5.210741283679374 6.116957159101875 -11.327698442781248 6.116957159101875
S 719.1396603142541 366.6407932901942 719.1396603142541 345.3447202177655
s 5.210741283679374 -6.116957159101875 11.327698442781248 -6.116957159101875
S 741.7950571998167 324.04864714533676 741.7950571998167 345.3447202177655
z" fill="none" stroke="none" style="animation-play-state:paused" ></path>


<circle cx="0" cy="0" r="14.17139501126782" fill="#337ab7" opacity="0.9" transform="translate(741.3388061523438 353.4519348144531)" style="opacity:0.9;animation-play-state:paused" ></circle>
<path id="path43" d="M 1155.041910918165 650.8376477279917
c 0 21.675847003104785 -5.3036646922490425 6.226041160466268 -11.52970585271531 6.226041160466268
S 1131.9824992127344 672.5134947310964 1131.9824992127344 650.8376477279917
s 5.3036646922490425 -6.226041160466268 11.52970585271531 -6.226041160466268
S 1155.041910918165 629.1618007248869 1155.041910918165 650.8376477279917
z" fill="none" stroke="none" style="animation-play-state:paused" ></path>


<circle cx="0" cy="0" r="15.15472590804273" fill="#337ab7" opacity="0.9" transform="translate(1138.048828125 660.0121459960938)" style="opacity:0.9;animation-play-state:paused" ></circle>
<path id="path44" d="M 755.5012208758094 547.5214131619441
c 0 35.212579336355205 -8.615843880172017 10.114251511506282 -18.730095391678297 10.114251511506282
S 718.0410300924527 582.7339924982994 718.0410300924527 547.5214131619441
s 8.615843880172017 -10.114251511506282 18.730095391678297 -10.114251511506282
S 755.5012208758094 512.3088338255889 755.5012208758094 547.5214131619441
z" fill="none" stroke="none" style="animation-play-state:paused" ></path>


<circle cx="0" cy="0" r="9.098144725493906" fill="#f0ad4e" opacity="0.9" transform="translate(730.3863525390625 534.6700439453125)" style="opacity:0.9;animation-play-state:paused" ></circle></g></svg>