<?xml version="1.0" standalone="no"?>
<!DOCTYPE svg PUBLIC "-//W3C//DTD SVG 20010904//EN"
 "http://www.w3.org/TR/2001/REC-SVG-20010904/DTD/svg10.dtd">
<svg version="1.0" xmlns="http://www.w3.org/2000/svg"
 width="407.000000pt" height="427.000000pt" viewBox="0 0 407.000000 427.000000"
 preserveAspectRatio="xMidYMid meet">

<g transform="translate(0.000000,427.000000) scale(0.100000,-0.100000)"
fill="#000000" stroke="none">
<path d="M1722 4023 c26 -7 -26 -53 -60 -53 -26 1 -26 1 -8 15 11 8 16 15 10
16 -5 0 0 4 11 9 15 7 11 8 -20 8 -42 0 -112 -15 -82 -17 24 -1 22 -21 -3 -21
-11 0 -20 5 -20 10 0 6 -4 10 -9 10 -5 0 -9 -10 -8 -22 0 -13 -3 -32 -8 -42
-7 -17 -5 -18 21 -12 72 16 107 19 100 8 -4 -7 -17 -12 -28 -12 -19 0 -86 -15
-223 -52 -22 -5 -92 -32 -155 -60 -63 -27 -127 -50 -141 -52 -24 -2 -204 -102
-241 -134 -25 -21 -22 -31 5 -24 20 5 21 4 8 -11 -10 -13 -10 -17 -1 -17 18 0
-5 -26 -55 -62 -60 -43 -155 -138 -155 -154 0 -26 72 14 121 68 28 29 52 47
59 43 12 -8 1 -20 -105 -114 -38 -34 -68 -63 -65 -64 3 -2 -12 -18 -33 -36
-20 -18 -44 -49 -54 -68 -9 -19 -27 -39 -40 -44 -13 -5 -23 -17 -23 -29 0 -11
-6 -20 -13 -20 -19 0 -44 -30 -52 -63 -4 -15 -11 -30 -16 -32 -4 -3 -2 16 6
42 17 57 13 67 -11 21 -22 -44 -64 -86 -64 -65 0 23 98 205 150 277 61 85 70
100 47 81 -30 -24 -131 -182 -182 -284 -27 -53 -50 -95 -52 -93 -2 2 8 36 22
77 28 84 31 100 12 79 -12 -14 -23 -37 -101 -216 -37 -83 -47 -159 -24 -166
25 -9 -33 -148 -62 -148 -13 0 -49 -179 -51 -255 -1 -11 -8 -69 -16 -130 -9
-62 -16 -190 -17 -292 l-1 -181 28 -24 c18 -16 27 -33 27 -53 0 -17 5 -37 11
-45 11 -15 10 -7 -8 176 -4 46 -1 73 12 107 15 40 15 48 2 67 -10 15 -12 32
-7 62 5 23 6 47 3 55 -3 7 2 19 10 28 8 8 17 20 20 27 11 32 14 -3 5 -67 -13
-94 -4 -334 17 -420 22 -94 62 -220 80 -253 19 -36 19 -15 -1 39 -17 48 -25
87 -50 222 -9 49 -13 91 -10 94 3 4 6 -6 6 -20 0 -18 4 -25 14 -21 10 4 17
-10 26 -48 6 -29 19 -68 27 -87 11 -24 13 -48 9 -82 -5 -39 -4 -49 8 -49 23 0
38 -75 27 -137 0 -4 -8 2 -16 13 -14 17 -14 15 0 -13 8 -18 20 -33 24 -33 5 0
18 -3 28 -7 17 -7 17 -6 0 21 -10 15 -16 33 -14 39 2 7 16 -12 31 -41 15 -29
33 -55 41 -59 8 -3 15 -13 15 -22 0 -21 141 -223 160 -229 11 -4 11 0 -2 15
-10 11 -18 23 -18 28 0 4 24 -18 54 -51 36 -39 51 -63 45 -70 -6 -7 -4 -16 6
-24 8 -7 15 -21 15 -31 0 -22 17 -34 23 -17 2 7 -3 21 -11 31 -12 13 -13 20
-4 29 13 13 42 -6 42 -27 0 -7 10 -19 23 -28 12 -8 19 -18 15 -23 -5 -4 -16 0
-26 9 -23 21 -33 22 -26 2 4 -8 2 -15 -4 -15 -22 0 -42 13 -42 26 0 8 -7 14
-15 14 -8 0 -15 8 -15 18 0 25 -74 82 -88 68 -9 -10 31 -47 45 -42 8 3 13 -2
13 -12 0 -10 7 -27 15 -39 14 -20 13 -22 -15 -28 -16 -4 -30 -12 -30 -19 0
-15 110 -117 222 -206 70 -55 232 -150 257 -150 6 0 15 9 19 20 7 19 8 19 50
-6 41 -25 51 -55 11 -33 -11 5 -28 8 -37 6 -11 -3 -1 -11 31 -26 26 -12 52
-19 58 -15 6 4 14 3 18 -2 19 -27 81 -57 149 -74 82 -20 220 -34 208 -22 -4 4
-50 18 -103 32 -53 14 -98 31 -101 38 -3 10 5 12 34 7 102 -17 102 -17 49 10
l-50 25 45 -6 c33 -4 41 -3 30 5 -10 7 -12 13 -5 20 7 7 42 6 105 -4 52 -7
123 -16 157 -20 49 -5 64 -11 68 -26 5 -15 17 -19 53 -20 31 -1 37 -3 19 -6
-35 -5 -30 -27 6 -31 15 -2 27 -8 27 -14 0 -7 -24 -9 -72 -5 -49 4 -68 3 -58
-4 11 -7 3 -9 -27 -7 -23 1 -46 -1 -49 -5 -7 -7 3 -8 71 -12 17 -1 72 -9 123
-18 50 -10 104 -18 120 -18 44 -3 -67 -17 -135 -18 -62 -1 -88 -13 -56 -26 10
-3 72 -6 138 -6 100 0 128 4 165 20 25 11 59 21 75 21 17 0 44 9 60 21 l30 20
-34 -6 c-50 -10 -30 10 29 30 27 9 52 21 55 26 4 5 17 9 29 9 23 0 61 41 50
53 -3 3 -21 1 -41 -5 -70 -19 -88 13 -18 33 39 12 45 17 45 41 0 20 7 32 24
39 14 7 22 17 20 24 -3 7 0 16 6 20 9 6 9 10 -1 16 -11 7 -10 11 6 24 11 8 32
18 47 21 15 4 33 13 40 21 11 13 8 13 -24 0 -20 -8 -94 -28 -164 -44 -119 -26
-145 -28 -339 -28 -241 0 -342 14 -515 72 -264 89 -462 212 -657 409 -73 73
-133 130 -133 127 0 -4 -20 22 -45 58 -54 76 -159 278 -150 287 3 4 11 0 16
-8 9 -12 10 -12 5 3 -3 10 -6 20 -6 23 0 2 -6 1 -14 -2 -22 -8 -72 127 -57
154 14 26 -7 131 -22 110 -6 -9 -7 -4 -3 12 3 14 6 34 7 45 l0 20 10 -20 c8
-18 9 -17 5 5 -3 14 -10 83 -17 154 -45 483 162 984 535 1295 178 149 423 281
498 269 17 -3 -13 -22 -112 -72 -181 -91 -283 -161 -397 -270 -286 -273 -444
-602 -473 -989 -9 -120 3 -310 25 -402 12 -50 14 -53 9 -15 -46 378 -5 677
127 941 142 285 381 523 664 663 457 225 983 216 1445 -26 360 -187 629 -493
759 -861 49 -138 96 -407 71 -407 -5 0 -10 15 -10 33 0 17 -7 71 -15 120 -107
612 -579 1106 -1185 1241 -576 128 -1131 -49 -1506 -479 -62 -71 -124 -157
-124 -172 0 -4 8 4 17 17 87 124 305 329 440 414 367 229 823 282 1238 145
292 -97 586 -317 749 -562 95 -142 186 -356 186 -435 0 -47 -4 -40 -40 59
-131 361 -395 660 -733 831 -221 111 -499 163 -749 140 -130 -12 -305 -51
-344 -77 -13 -8 -58 -29 -101 -46 -91 -36 -198 -91 -233 -120 -14 -11 -19 -18
-12 -14 6 3 12 2 12 -3 0 -5 -32 -36 -72 -68 -195 -160 -356 -404 -447 -678
-47 -143 -61 -219 -61 -341 0 -280 101 -580 268 -800 49 -63 161 -185 171
-185 3 0 6 95 6 210 0 224 -2 234 -49 222 -11 -2 -54 -20 -95 -38 -41 -19 -80
-34 -88 -34 -9 0 -13 -6 -9 -15 3 -8 3 -15 1 -15 -14 0 -116 234 -115 263 1 6
14 -22 29 -63 15 -41 38 -94 49 -117 l22 -42 100 41 c55 22 100 44 100 48 0 5
-16 32 -35 61 -42 64 -58 130 -53 229 l3 75 130 5 c187 7 172 14 177 -82 3
-74 6 -82 32 -105 24 -20 35 -23 70 -18 25 4 50 16 64 31 l22 25 0 418 c0 311
3 420 12 429 7 7 39 12 75 12 44 0 63 4 63 13 0 9 2 9 8 0 4 -7 37 -13 77 -15
l70 -3 3 -435 c3 -462 1 -486 -45 -567 -61 -107 -210 -182 -360 -183 -37 0
-42 -3 -53 -32 -16 -42 -26 -278 -12 -278 5 0 19 30 31 68 56 172 113 223 128
113 3 -22 12 -46 21 -53 12 -11 23 -4 63 40 27 30 49 60 49 68 0 8 7 14 16 14
8 0 13 -4 10 -9 -3 -5 -6 -41 -7 -80 -2 -100 11 -109 65 -49 24 25 49 59 57
75 24 47 71 123 76 123 5 0 -4 -91 -14 -140 -2 -14 7 -2 20 26 14 28 35 59 48
68 22 15 24 14 45 -5 30 -28 52 -19 97 41 30 40 43 50 66 50 28 0 46 14 66 52
9 19 33 23 28 6 -2 -4 -8 -39 -14 -78 -18 -115 -2 -124 69 -38 30 36 42 63 57
127 10 44 23 81 28 81 5 0 7 -10 4 -22 -10 -39 -37 -270 -37 -315 0 -60 14
-54 34 15 18 65 76 187 103 218 46 52 84 51 97 -1 8 -31 24 -31 67 -2 36 24
33 16 79 217 26 111 75 229 90 214 12 -12 -13 -116 -63 -259 -26 -75 -35 -120
-37 -180 -6 -152 4 -185 30 -102 42 131 99 220 120 186 5 -7 11 -32 15 -56 9
-65 29 -66 84 -6 25 28 56 65 69 82 17 22 32 31 53 31 24 0 32 7 50 41 29 57
40 37 23 -41 -23 -111 -17 -143 21 -112 52 43 84 99 94 163 17 102 23 98 -94
73 -38 -8 -23 8 23 24 94 34 89 30 111 102 12 38 26 72 31 75 13 8 13 -30 0
-75 -6 -20 -6 -38 -1 -43 5 -5 44 0 92 13 46 12 94 24 107 26 32 6 27 -13 -5
-20 -16 -3 -70 -18 -121 -33 -90 -26 -92 -27 -101 -62 -19 -73 -40 -278 -34
-333 9 -92 30 -78 93 62 38 83 92 169 97 154 2 -6 -24 -67 -57 -137 -33 -70
-60 -130 -60 -133 0 -3 21 -3 48 1 45 8 65 10 123 13 17 2 29 10 36 30 l12 27
-6 -29 c-5 -25 -3 -27 15 -22 19 7 52 -15 52 -34 0 -15 -34 -29 -70 -28 -19 1
-36 -4 -38 -10 -13 -41 -202 -320 -202 -298 0 3 24 39 53 79 54 73 137 207
137 221 0 4 -16 6 -36 4 -34 -3 -40 -9 -76 -73 -142 -250 -349 -450 -619 -594
-109 -59 -155 -79 -197 -87 -20 -3 -77 -17 -127 -29 -109 -28 -273 -46 -384
-44 -44 2 -84 -1 -88 -4 -13 -13 298 -7 409 9 111 15 241 48 265 66 7 5 17 7
23 3 5 -3 10 -2 10 3 0 6 19 17 43 27 23 9 68 33 100 52 51 31 63 34 90 26
l32 -9 -33 -18 c-34 -18 -38 -35 -5 -21 10 5 22 7 26 6 4 0 10 6 13 14 4 8 13
15 22 15 9 0 30 16 48 36 18 20 38 33 44 29 14 -9 100 53 119 86 14 25 51 41
51 23 0 -10 -110 -114 -121 -114 -6 0 -21 -12 -34 -27 -12 -16 -49 -41 -80
-57 -32 -16 -66 -37 -76 -47 -10 -10 -30 -21 -43 -25 -14 -3 -27 -12 -30 -20
-3 -8 -16 -14 -29 -14 -32 0 -87 -20 -87 -31 0 -5 2 -9 3 -9 14 0 135 45 153
57 13 8 28 12 34 8 5 -3 13 1 16 9 3 9 37 36 74 61 52 35 75 44 93 40 18 -5
29 -1 38 13 8 10 28 22 44 26 l30 6 -30 -26 c-58 -50 -147 -114 -160 -114 -7
0 -30 -14 -51 -31 -22 -18 -60 -45 -86 -61 -27 -16 -48 -32 -48 -35 0 -11 68
11 109 35 30 16 46 21 49 14 5 -17 23 -15 62 9 31 19 33 23 16 29 -15 5 -6 14
50 49 38 24 79 53 91 64 13 11 25 18 28 15 6 -6 -56 -63 -77 -70 -18 -7 -9
-14 28 -22 25 -6 38 -1 78 31 89 70 316 305 316 327 0 7 11 23 25 36 14 13 42
53 62 89 20 37 51 91 69 121 18 30 43 82 54 115 12 33 28 72 36 87 8 16 20 56
25 90 5 35 19 89 30 120 11 32 22 82 24 113 3 30 9 63 13 73 35 68 48 510 19
617 -19 67 -21 85 -9 85 7 0 41 -99 69 -203 3 -10 7 -16 10 -13 17 17 -66 333
-99 380 -11 16 -21 41 -22 57 -1 15 -11 39 -24 52 -12 13 -33 42 -45 65 -54
99 -120 201 -134 206 -8 4 -13 13 -9 21 3 8 1 15 -5 15 -6 0 -9 6 -6 14 3 8
-4 28 -16 45 -89 123 -145 206 -141 211 3 3 16 -7 28 -21 12 -14 27 -24 32
-22 6 2 30 -21 54 -52 24 -30 45 -54 47 -51 9 8 -27 64 -71 111 -25 26 -46 52
-46 57 0 5 -39 49 -88 96 -94 93 -195 167 -213 156 -8 -4 -7 -9 2 -15 7 -4 11
-11 7 -14 -3 -4 -21 10 -39 29 -23 26 -38 35 -51 30 -23 -7 -43 9 -74 58 -19
29 -31 38 -53 38 -20 0 -31 7 -39 25 -12 27 -48 36 -38 10 9 -25 -23 -18 -114
25 -87 41 -125 51 -102 28 15 -15 15 -45 0 -54 -8 -5 -9 -2 -5 9 5 13 1 17
-17 17 -31 0 -55 27 -32 36 9 3 16 9 16 13 0 8 -83 36 -155 51 -113 25 -131
29 -159 36 -27 6 -28 6 -16 -15 9 -17 9 -26 -1 -37 -13 -16 -14 -16 21 -31 23
-11 21 -12 -24 -12 -39 -1 -47 2 -42 14 6 18 2 19 -26 4 -18 -10 -20 -9 -15 5
5 12 0 16 -20 16 -14 0 -31 -6 -37 -14 -8 -11 -22 -12 -58 -7 -26 4 -53 4 -59
0 -7 -4 -25 -1 -39 6 -14 7 -33 13 -40 13 -8 -1 -26 0 -40 1 -20 1 -22 3 -10
11 25 16 -10 41 -58 42 -23 0 -42 2 -42 4 0 6 47 24 85 34 19 5 -12 8 -85 8
-63 0 -108 -2 -98 -5z m151 -60 c-7 -2 -19 -2 -25 0 -7 3 -2 5 12 5 14 0 19
-2 13 -5z m589 -41 c29 -25 9 -34 -22 -10 -16 13 -29 26 -29 30 -1 10 31 -2
51 -20z m-335 -48 c-3 -3 -12 -4 -19 -1 -8 3 -5 6 6 6 11 1 17 -2 13 -5z
m-617 -36 c-19 -5 -59 -16 -88 -24 -30 -9 -56 -13 -59 -10 -8 7 124 44 162 44
11 0 4 -4 -15 -10z m593 -5 c-7 -2 -21 -2 -30 0 -10 3 -4 5 12 5 17 0 24 -2
18 -5z m-845 -61 c17 -11 -194 -117 -225 -114 -18 2 -23 -2 -24 -20 0 -22 -1
-22 -9 -3 -5 11 -9 16 -9 12 -1 -5 -6 -5 -12 -2 -16 11 22 47 44 41 10 -2 20
1 23 8 3 8 15 11 28 9 23 -5 138 47 151 67 7 12 16 12 33 2z m800 -49 c-16 -2
-40 -2 -55 0 -16 2 -3 4 27 4 30 0 43 -2 28 -4z m-213 -14 c-51 -10 -92 -10
-50 1 17 4 44 8 60 8 25 0 24 -2 -10 -9z m-270 -63 c-55 -19 -104 -30 -109
-26 -8 8 15 16 134 49 83 22 67 8 -25 -23z m-635 -10 c0 -3 -4 -8 -10 -11 -5
-3 -10 -1 -10 4 0 6 5 11 10 11 6 0 10 -2 10 -4z m1180 -46 c0 -12 -47 -12
-75 0 -15 6 -8 9 28 9 26 1 47 -3 47 -9z m-1140 -10 c0 -5 -10 -15 -22 -21
-23 -12 -23 -12 -4 10 21 23 26 26 26 11z m380 0 c-8 -5 -19 -10 -25 -10 -5 0
-3 5 5 10 8 5 20 10 25 10 6 0 3 -5 -5 -10z m1380 0 c8 -5 11 -10 5 -10 -5 0
-17 5 -25 10 -8 5 -10 10 -5 10 6 0 17 -5 25 -10z m-1696 -34 c-3 -8 -24 -27
-47 -43 -22 -15 -54 -40 -71 -55 -32 -29 -86 -53 -86 -38 0 5 24 25 53 44 28
19 64 46 79 60 22 21 50 38 75 45 1 1 0 -5 -3 -13z m86 -16 c-14 -10 -27 -16
-30 -13 -6 6 30 33 44 33 6 0 0 -9 -14 -20z m180 6 c0 -2 -7 -7 -16 -10 -8 -3
-12 -2 -9 4 6 10 25 14 25 6z m-75 -14 c-22 -19 -88 -55 -81 -44 4 7 24 21 44
32 41 21 51 24 37 12z m-366 -21 c-13 -11 -26 -17 -29 -14 -6 6 30 33 43 33 5
0 -1 -9 -14 -19z m191 -21 c-14 -10 -37 -29 -53 -40 -15 -12 -33 -20 -39 -18
-15 5 81 78 102 77 10 0 7 -6 -10 -19z m140 -4 c0 -2 -12 -11 -27 -20 l-28
-17 24 20 c23 21 31 25 31 17z m-80 -24 c-167 -114 -305 -246 -448 -428 -13
-16 -5 -2 18 32 83 124 282 315 410 393 42 25 56 27 20 3z m-80 -85 c0 -2 -10
-12 -22 -23 l-23 -19 19 23 c18 21 26 27 26 19z m-316 -72 c-9 -14 -18 -25
-21 -25 -5 0 5 18 20 38 17 22 18 13 1 -13z m246 11 c0 -2 -8 -10 -17 -17 -16
-13 -17 -12 -4 4 13 16 21 21 21 13z m2500 -41 c0 -8 -6 -15 -14 -15 -8 0 -17
-6 -19 -12 -4 -9 -6 -8 -6 3 -1 16 17 39 31 39 4 0 8 -7 8 -15z m-2792 -32
c-8 -10 -20 -32 -27 -50 -15 -37 -41 -64 -41 -42 0 17 71 121 78 114 3 -3 -2
-13 -10 -22z m140 -80 c-58 -62 -115 -140 -175 -239 -61 -103 -84 -129 -33
-36 64 113 215 312 238 312 3 0 -10 -17 -30 -37z m-318 -94 c-7 -11 -14 -18
-17 -15 -8 8 5 36 17 36 7 0 7 -6 0 -21z m3125 -37 c-8 -8 -25 17 -25 38 0 9
6 6 16 -8 9 -13 13 -26 9 -30z m-1972 -49 c-3 -38 -9 -72 -14 -77 -28 -31 17
-100 48 -74 9 7 17 7 28 -2 12 -10 11 -16 -7 -40 -26 -36 -69 -54 -107 -47
-21 4 -37 -1 -61 -18 -18 -13 -37 -22 -42 -19 -11 7 0 24 16 24 7 0 26 10 41
21 16 14 30 18 33 12 4 -6 18 -9 32 -7 14 1 30 3 37 3 6 1 22 15 34 33 l23 31
-27 -7 c-39 -9 -71 25 -62 67 14 65 17 127 7 127 -21 0 -42 -33 -42 -66 0 -19
-5 -34 -11 -34 -7 0 -10 -12 -7 -29 3 -18 0 -28 -5 -24 -6 4 -8 -3 -4 -17 4
-15 3 -20 -4 -13 -18 18 21 152 54 190 16 18 33 33 38 33 4 0 6 -30 2 -67z
m-1012 0 c-5 -10 -17 -27 -26 -38 -16 -19 -17 -19 -3 5 26 46 29 50 34 50 3 0
0 -8 -5 -17z m859 -30 l31 -48 -31 35 -31 35 16 -45 c24 -64 45 -100 74 -128
l26 -24 -33 18 c-17 10 -35 27 -38 39 -4 11 -11 26 -17 34 -23 28 -49 131 -32
131 2 0 18 -21 35 -47z m2130 -8 c12 -19 20 -40 18 -47 -3 -9 -48 62 -48 77 0
12 10 2 30 -30z m-1504 -102 c-4 -4 -36 73 -35 85 0 4 9 -13 20 -37 11 -24 18
-46 15 -48z m-1546 37 c-11 -22 -23 -40 -25 -40 -3 0 4 18 15 40 11 22 23 40
25 40 3 0 -4 -18 -15 -40z m-49 -97 c-11 -21 -20 -35 -21 -31 0 12 33 78 38
74 2 -2 -6 -21 -17 -43z m1657 -33 c94 -143 184 -225 335 -305 108 -58 229
-97 411 -134 196 -40 272 -70 345 -135 35 -31 81 -97 81 -115 -1 -12 -3 -11
-11 4 -52 95 -130 157 -242 194 -34 11 -132 34 -217 51 -252 51 -427 131 -561
257 -75 71 -149 164 -181 228 -27 54 -19 44 40 -45z m-1889 16 c-9 -8 -10 -7
-5 7 3 10 7 24 7 30 1 7 3 4 6 -7 3 -10 -1 -23 -8 -30z m247 -23 c-14 -26 -25
-45 -26 -41 0 12 43 98 48 94 2 -2 -8 -26 -22 -53z m1857 -102 c52 -54 132
-106 217 -143 36 -15 58 -28 49 -28 -10 0 -58 20 -108 45 -105 53 -204 142
-239 217 -32 68 -27 73 9 8 16 -30 49 -75 72 -99z m1333 93 c8 -20 13 -38 10
-41 -4 -4 -36 61 -36 73 0 15 13 -2 26 -32z m-2248 -3 c-13 -22 -28 -28 -28
-12 0 12 31 43 37 37 2 -2 -2 -13 -9 -25z m2332 -35 c-1 -21 -1 -21 -20 3 -11
13 -20 33 -20 45 1 21 1 21 20 -3 11 -13 20 -33 20 -45z m-3330 -7 c-11 -24
-20 -39 -20 -32 0 15 32 84 37 79 2 -1 -6 -23 -17 -47z m2005 -29 c21 -22 37
-40 34 -40 -3 0 -23 18 -44 40 -21 22 -37 40 -34 40 3 0 23 -18 44 -40z
m-2000 -51 c-53 -153 -69 -259 -69 -459 -1 -179 6 -246 23 -236 12 8 22 -80
14 -112 -6 -23 -9 -17 -23 40 -12 54 -18 66 -29 59 -11 -7 -12 -13 -4 -23 6
-7 13 -44 17 -83 8 -84 72 -282 126 -391 l39 -79 -34 39 c-34 38 -35 38 -35
14 0 -14 25 -64 55 -113 30 -48 55 -89 55 -91 0 -2 -7 -1 -15 2 -22 9 -45 -19
-33 -40 5 -9 8 -22 5 -29 -2 -7 -18 11 -35 38 -17 28 -39 61 -50 75 -38 50
-97 178 -86 189 6 6 28 -23 61 -79 25 -42 113 -139 113 -124 0 4 -20 39 -44
78 -56 91 -60 99 -90 180 -14 37 -21 64 -16 61 17 -10 12 102 -5 119 -8 8 -15
24 -15 36 0 12 -4 19 -9 16 -11 -7 -21 27 -21 72 0 17 -4 32 -9 32 -6 0 -8 50
-6 118 3 129 13 212 25 212 4 0 10 53 13 118 7 128 32 257 73 370 34 95 42 88
9 -9z m46 54 c-12 -20 -14 -14 -5 12 4 9 9 14 11 11 3 -2 0 -13 -6 -23z m-27
-87 c-10 -31 -19 -54 -22 -52 -2 2 4 29 14 60 10 31 19 54 22 52 2 -2 -4 -29
-14 -60z m3307 -36 c5 0 9 -11 9 -24 0 -14 4 -28 10 -31 5 -3 9 -16 9 -28 0
-12 2 -47 6 -77 6 -41 5 -52 -4 -45 -6 6 -13 31 -16 55 -2 25 -15 81 -29 125
-28 88 -33 121 -9 63 9 -21 20 -38 24 -38z m-3377 6 c-3 -15 -8 -25 -11 -23
-2 3 -1 17 3 31 3 15 8 25 11 23 2 -3 1 -17 -3 -31z m-17 -68 c-3 -7 -5 -2 -5
12 0 14 2 19 5 13 2 -7 2 -19 0 -25z m60 10 c-3 -8 -6 -5 -6 6 -1 11 2 17 5
13 3 -3 4 -12 1 -19z m-10 -50 c-3 -7 -5 -2 -5 12 0 14 2 19 5 13 2 -7 2 -19
0 -25z m2263 22 c20 -6 21 -8 5 -8 -11 0 -29 3 -40 8 -25 11 1 11 35 0z
m-2326 -44 c-3 -21 -8 -35 -11 -32 -2 2 -1 20 3 40 3 21 8 35 11 32 2 -2 1
-20 -3 -40z m2383 28 c-3 -3 -12 -4 -19 -1 -8 3 -5 6 6 6 11 1 17 -2 13 -5z
m50 -10 c-3 -3 -12 -4 -19 -1 -8 3 -5 6 6 6 11 1 17 -2 13 -5z m56 -11 c-7 -2
-19 -2 -25 0 -7 3 -2 5 12 5 14 0 19 -2 13 -5z m-2436 -35 c-3 -7 -5 -2 -5 12
0 14 2 19 5 13 2 -7 2 -19 0 -25z m-10 -70 c-2 -13 -4 -5 -4 17 -1 22 1 32 4
23 2 -10 2 -28 0 -40z m-60 -10 c-2 -13 -4 -5 -4 17 -1 22 1 32 4 23 2 -10 2
-28 0 -40z m3473 -19 c0 -17 -4 -28 -10 -24 -5 3 -10 17 -10 31 0 13 5 24 10
24 6 0 10 -14 10 -31z m-3423 -111 c-2 -24 -4 -7 -4 37 0 44 2 63 4 43 2 -21
2 -57 0 -80z m-60 25 c-2 -16 -4 -3 -4 27 0 30 2 43 4 28 2 -16 2 -40 0 -55z
m316 -333 c6 -43 6 -44 -4 -10 -6 19 -12 114 -14 210 l-3 175 8 -165 c4 -91
10 -185 13 -210z m3167 285 c0 -50 -4 -85 -10 -85 -6 0 -10 35 -10 85 0 50 4
85 10 85 6 0 10 -35 10 -85z m-323 -137 c-2 -18 -4 -4 -4 32 0 36 2 50 4 33 2
-18 2 -48 0 -65z m-3297 -22 l-20 -20 0 21 c0 11 3 35 6 53 l7 32 14 -33 c12
-30 12 -35 -7 -53z m197 -28 c-2 -18 -4 -6 -4 27 0 33 2 48 4 33 2 -15 2 -42
0 -60z m3404 29 c-8 -8 -11 -5 -11 9 0 27 14 41 18 19 2 -9 -1 -22 -7 -28z
m-3521 -19 c0 -5 -4 -8 -10 -8 -5 0 -10 10 -10 23 0 18 2 19 10 7 5 -8 10 -18
10 -22z m-80 -27 c0 -10 -7 -24 -15 -31 -16 -13 -18 -8 -9 28 8 27 24 29 24 3z
m3599 -24 c0 -21 -1 -21 -9 -2 -12 28 -12 37 0 30 6 -3 10 -16 9 -28z m-3552
-64 c-3 -10 -5 -2 -5 17 0 19 2 27 5 18 2 -10 2 -26 0 -35z m-43 3 c-6 -26
-34 -37 -34 -14 0 13 31 50 37 44 2 -2 1 -15 -3 -30z m3293 -48 c-2 -18 -4 -6
-4 27 0 33 2 48 4 33 2 -15 2 -42 0 -60z m258 72 c3 -5 1 -10 -4 -10 -6 0 -11
5 -11 10 0 6 2 10 4 10 3 0 8 -4 11 -10z m-3077 -130 c0 -9 -3 -7 -8 5 -5 11
-8 29 -8 40 0 16 2 15 8 -5 4 -14 8 -32 8 -40z m-471 8 c-3 -7 -5 -2 -5 12 0
14 2 19 5 13 2 -7 2 -19 0 -25z m3280 -35 c-3 -10 -5 -4 -5 12 0 17 2 24 5 18
2 -7 2 -21 0 -30z m-3051 -9 c-5 -17 -3 -23 4 -19 12 7 13 -5 1 -23 -11 -18
-24 29 -15 52 10 26 17 18 10 -10z m3041 -46 c-3 -7 -5 -2 -5 12 0 14 2 19 5
13 2 -7 2 -19 0 -25z m-3162 -40 c6 -30 4 -38 -8 -38 -11 0 -15 13 -15 53 -1
57 11 49 23 -15z m3418 0 l-11 -33 -1 45 c-1 33 2 41 11 32 8 -8 8 -20 1 -44z
m-283 -78 c-6 -23 -14 -40 -16 -37 -3 3 0 24 7 46 16 54 24 46 9 -9z m-3110
-57 c0 -20 -24 -11 -28 10 -2 12 1 15 12 11 9 -3 16 -13 16 -21z m1211 -16
c-13 -13 -26 -3 -16 12 3 6 11 8 17 5 6 -4 6 -10 -1 -17z m2121 -29 c-7 -7
-12 -8 -12 -2 0 14 12 26 19 19 2 -3 -1 -11 -7 -17z m-3342 -45 c11 -25 18
-48 16 -50 -5 -5 -30 41 -40 75 -12 39 2 24 24 -25z m560 -72 c34 -46 58 -81
52 -77 -11 6 -112 139 -127 166 -14 26 8 -1 75 -89z m-520 -11 c0 -5 -2 -10
-4 -10 -3 0 -8 5 -11 10 -3 6 -1 10 4 10 6 0 11 -4 11 -10z m262 -114 c61 -65
28 -68 -35 -3 -41 41 -55 63 -53 82 l1 27 25 -33 c14 -18 42 -51 62 -73z m-21
-114 c-14 -27 -14 -32 3 -32 7 0 21 -10 29 -23 8 -13 45 -54 82 -91 37 -37 64
-70 61 -73 -6 -6 -69 49 -160 139 -26 26 -53 48 -60 49 -7 0 -6 2 2 6 6 2 12
11 12 19 0 8 7 14 15 14 8 0 15 5 15 12 0 6 3 9 6 6 3 -4 1 -15 -5 -26z m90 1
c13 -16 12 -17 -3 -4 -10 7 -18 15 -18 17 0 8 8 3 21 -13z m2469 -26 c0 -2
-10 -12 -22 -23 l-23 -19 19 23 c18 21 26 27 26 19z m220 -116 c0 -5 -7 -12
-16 -15 -14 -5 -15 -4 -4 9 14 17 20 19 20 6z m-2600 -23 c0 -6 -6 -5 -15 2
-8 7 -15 14 -15 16 0 2 7 1 15 -2 8 -4 15 -11 15 -16z m91 -15 c13 -16 12 -17
-3 -4 -10 7 -18 15 -18 17 0 8 8 3 21 -13z m44 -33 c10 -11 16 -20 13 -20 -3
0 -13 9 -23 20 -10 11 -16 20 -13 20 3 0 13 -9 23 -20z m46 -37 c13 -16 12
-17 -3 -4 -10 7 -18 15 -18 17 0 8 8 3 21 -13z m1936 -25 c-22 -28 -43 -43
-58 -43 -12 0 -24 -6 -27 -13 -4 -13 -42 -17 -42 -4 0 10 138 102 152 102 6 0
-5 -19 -25 -42z m193 27 c-7 -9 -15 -13 -17 -11 -7 7 7 26 19 26 6 0 6 -6 -2
-15z m-2089 -32 c13 -16 12 -17 -3 -4 -10 7 -18 15 -18 17 0 8 8 3 21 -13z
m-346 -33 c-3 -4 5 -10 17 -13 12 -4 19 -9 15 -13 -11 -11 12 -42 35 -47 20
-4 19 -4 -4 -6 -49 -2 -118 76 -91 102 8 9 34 -13 28 -23z m381 -108 c-4 -3
-14 2 -24 12 -16 18 -16 18 6 6 13 -6 21 -14 18 -18z m-251 -13 c20 -38 13
-47 -20 -25 -26 17 -33 36 -14 36 5 0 7 5 4 10 -3 6 -2 10 4 10 6 0 18 -14 26
-31z m96 -17 c-7 -2 -23 6 -35 18 l-21 22 35 -18 c21 -10 30 -19 21 -22z m-23
-24 c7 -7 12 -20 12 -30 0 -10 6 -18 14 -18 8 0 18 -5 21 -11 14 -21 -5 -21
-39 1 -25 15 -36 29 -36 46 0 26 10 30 28 12z m436 -89 c33 -10 63 -16 67 -13
4 2 23 -5 41 -16 19 -11 70 -25 113 -31 93 -13 141 -33 55 -23 -30 3 -108 21
-174 40 -86 25 -122 31 -131 24 -10 -8 -24 -7 -50 4 -21 9 -41 13 -46 10 -5
-3 -9 0 -9 5 0 14 26 14 51 1 24 -13 25 -2 2 17 -17 14 -17 14 2 8 11 -4 47
-16 79 -26z m-257 -30 c7 -6 13 -20 13 -31 0 -18 -4 -17 -52 11 -29 16 -54 37
-56 45 -3 14 1 14 39 1 23 -9 48 -20 56 -26z m118 -14 c22 -13 36 -25 32 -25
-11 0 -87 39 -87 45 0 10 16 4 55 -20z m648 -12 c-7 -2 -19 -2 -25 0 -7 3 -2
5 12 5 14 0 19 -2 13 -5z m537 -23 c-20 -13 -50 -13 -50 0 0 6 15 10 33 10 24
0 28 -3 17 -10z m-625 -20 c3 -5 1 -10 -4 -10 -6 0 -11 5 -11 10 0 6 2 10 4
10 3 0 8 -4 11 -10z m85 0 c-20 -13 -50 -13 -50 0 0 6 15 10 33 10 24 0 28 -3
17 -10z m50 -54 c0 -3 -4 -8 -10 -11 -5 -3 -10 -1 -10 4 0 6 5 11 10 11 6 0
10 -2 10 -4z"/>
<path d="M397 2030 c-12 -45 -8 -90 8 -90 16 0 18 14 7 75 -7 36 -8 38 -15 15z"/>
<path d="M452 1830 c0 -14 2 -19 5 -12 2 6 2 18 0 25 -3 6 -5 1 -5 -13z"/>
<path d="M2040 4010 c-52 -5 -53 -6 -23 -13 18 -5 37 -6 43 -2 17 10 52 -5 46
-21 -7 -18 32 -28 73 -17 30 8 31 9 16 31 -12 16 -22 21 -40 16 -13 -3 -31 -2
-42 3 -10 5 -43 6 -73 3z"/>
<path d="M1486 3954 c-9 -22 -8 -24 9 -24 8 0 15 6 15 14 0 22 -17 28 -24 10z"/>
<path d="M1420 3950 c-8 -5 -10 -10 -5 -10 6 0 17 5 25 10 8 5 11 10 5 10 -5
0 -17 -5 -25 -10z"/>
<path d="M1327 3925 c-21 -8 -44 -12 -52 -8 -9 3 -27 -6 -42 -21 -14 -14 -22
-26 -17 -27 28 -4 61 5 83 22 17 14 28 16 35 9 17 -17 32 -12 44 15 14 29 7
31 -51 10z"/>
<path d="M1135 3840 c-3 -6 1 -7 9 -4 18 7 21 14 7 14 -6 0 -13 -4 -16 -10z"/>
<path d="M1048 3803 c-51 -28 -63 -45 -25 -36 28 7 106 63 86 63 -7 0 -35 -12
-61 -27z"/>
<path d="M907 3719 c-17 -10 -37 -16 -59 -18 -5 -1 -8 -7 -8 -14 0 -8 -19 -28
-42 -45 -47 -35 -155 -132 -123 -110 11 7 65 47 120 88 55 41 112 83 125 92
27 19 16 24 -13 7z"/>
<path d="M693 3484 c-57 -53 -103 -101 -103 -106 0 -6 28 15 63 46 34 32 86
80 116 107 29 27 47 49 40 49 -8 0 -60 -43 -116 -96z"/>
<path d="M619 3300 c-28 -23 -22 -25 16 -6 14 8 22 17 17 20 -6 3 -21 -3 -33
-14z"/>
<path d="M434 3256 c-9 -15 -14 -29 -12 -32 3 -2 13 7 22 22 10 14 15 28 13
31 -3 2 -13 -7 -23 -21z"/>
<path d="M3660 3140 c0 -43 67 -140 96 -140 7 0 16 -9 19 -21 4 -11 9 -18 12
-16 5 5 -15 47 -26 57 -3 3 -13 18 -21 34 -8 16 -19 28 -24 27 -5 -1 -17 16
-27 38 -20 45 -29 52 -29 21z"/>
<path d="M3790 2931 c0 -6 5 -13 10 -16 6 -3 10 -16 10 -29 0 -12 7 -31 15
-42 14 -19 14 -18 15 3 0 26 -30 93 -42 93 -4 0 -8 -4 -8 -9z"/>
<path d="M3878 2729 c20 -45 38 -76 40 -69 3 7 0 22 -6 33 -5 12 -17 43 -27
70 -9 26 -23 47 -30 47 -9 0 -3 -25 23 -81z"/>
<path d="M636 2463 c-44 -147 -59 -253 -52 -381 7 -118 22 -220 36 -237 4 -5
13 -35 19 -65 30 -145 108 -324 205 -469 62 -93 213 -261 235 -261 29 0 2 40
-92 139 -57 59 -125 140 -151 180 -104 158 -182 356 -211 531 -29 179 -16 425
31 589 26 89 9 67 -20 -26z"/>
<path d="M3934 2215 c-7 -17 4 -37 17 -30 12 8 12 45 -1 45 -6 0 -13 -7 -16
-15z"/>
<path d="M3935 2151 c-3 -5 -1 -12 4 -15 5 -3 11 1 15 9 6 16 -9 21 -19 6z"/>
<path d="M3937 2063 c-11 -10 -8 -53 3 -53 6 0 10 14 10 30 0 31 -2 35 -13 23z"/>
<path d="M3925 1940 c-3 -5 -1 -10 4 -10 6 0 11 5 11 10 0 6 -2 10 -4 10 -3 0
-8 -4 -11 -10z"/>
<path d="M571 1734 c0 -11 3 -14 6 -6 3 7 2 16 -1 19 -3 4 -6 -2 -5 -13z"/>
<path d="M52 1690 c0 -14 2 -19 5 -12 2 6 2 18 0 25 -3 6 -5 1 -5 -13z"/>
<path d="M131 1659 c0 -13 4 -33 9 -44 7 -14 8 -8 3 20 -7 46 -13 59 -12 24z"/>
<path d="M505 1650 c-9 -15 6 -61 18 -53 7 4 8 0 3 -13 -5 -14 -4 -16 4 -8 12
12 3 44 -12 44 -5 0 -6 9 -3 20 7 21 1 27 -10 10z"/>
<path d="M2957 1645 c-17 -16 -40 -85 -32 -94 6 -6 30 23 51 63 19 34 5 56
-19 31z"/>
<path d="M2733 1588 c-16 -22 -31 -60 -63 -160 -17 -54 -36 -98 -41 -98 -20 0
-39 71 -39 145 0 41 -3 75 -6 75 -3 0 -25 -13 -49 -30 -33 -23 -47 -41 -60
-79 -21 -64 -69 -131 -94 -131 -49 0 -36 60 30 135 35 40 49 65 49 86 0 40
-27 50 -53 18 -41 -51 -117 -238 -117 -290 0 -23 24 -20 205 23 66 16 146 34
179 39 32 5 84 16 116 24 32 8 68 15 81 15 13 0 69 11 124 25 55 13 117 25
137 25 l37 0 -5 83 c-8 115 -8 115 -55 72 -47 -43 -70 -42 -83 3 -5 17 -12 32
-16 32 -3 0 -21 -20 -38 -45 -37 -53 -60 -65 -77 -42 -15 21 -33 22 -56 1 -29
-26 -57 -9 -70 42 -12 46 -20 53 -36 32z"/>
<path d="M282 1565 c0 -11 4 -31 8 -45 6 -20 8 -21 8 -5 0 11 -4 31 -8 45 -6
20 -8 21 -8 5z"/>
<path d="M170 1556 c0 -16 40 -109 45 -104 7 6 -28 118 -37 118 -4 0 -8 -6 -8
-14z"/>
<path d="M1116 1478 c-4 -26 -6 -122 -5 -213 l1 -166 66 -49 c37 -28 73 -50
80 -50 6 0 12 -4 12 -9 0 -15 198 -107 290 -135 47 -14 121 -32 165 -40 44 -8
67 -15 52 -15 -45 -2 -219 37 -299 65 -100 36 -192 84 -287 148 -75 52 -81 54
-81 32 0 -21 37 -66 54 -66 4 0 17 -9 29 -20 29 -28 157 -102 238 -139 84 -38
202 -75 309 -98 120 -25 410 -25 530 1 189 40 371 116 527 219 129 86 327 290
383 396 11 22 11 23 -6 17 -11 -5 -53 -11 -94 -16 -41 -4 -111 -14 -155 -23
-44 -8 -114 -21 -155 -27 -77 -13 -182 -32 -375 -69 -60 -12 -113 -25 -118
-30 -4 -4 -12 -34 -16 -65 -12 -90 -31 -91 -39 -1 -3 42 -8 55 -21 55 -9 0
-70 -12 -136 -26 -66 -14 -174 -36 -240 -48 -66 -13 -140 -29 -164 -36 -24 -6
-94 -20 -155 -30 -61 -11 -127 -22 -146 -25 -24 -4 -30 -3 -20 3 16 10 81 26
275 67 125 27 305 68 390 90 28 7 83 19 123 26 40 7 76 17 81 23 10 13 19 191
10 200 -3 4 -21 -7 -39 -24 -18 -16 -43 -30 -56 -30 -19 0 -24 7 -30 36 l-7
37 -49 -57 c-27 -31 -53 -56 -58 -56 -4 0 -13 14 -19 31 -8 25 -14 29 -31 24
-13 -4 -31 0 -45 9 -13 9 -27 16 -29 16 -10 0 -37 -60 -57 -128 -35 -111 -62
-119 -61 -18 0 31 -2 56 -5 56 -3 0 -26 -22 -52 -50 -34 -36 -55 -50 -74 -50
-28 0 -47 24 -47 59 0 32 -17 34 -60 5 -39 -26 -41 -26 -60 -9 -11 10 -22 33
-26 51 -3 19 -10 34 -15 34 -13 0 -39 -56 -74 -160 -34 -101 -58 -125 -72 -73
-7 26 -8 241 -1 322 3 33 2 34 -63 55 l-67 22 -6 -48z m1492 -269 c4 25 10 26
36 6 25 -19 36 -19 36 1 0 8 4 13 9 10 5 -3 7 -15 4 -25 -4 -14 11 -30 61 -66
36 -26 66 -50 66 -55 0 -5 -29 -29 -65 -55 -62 -44 -79 -69 -53 -77 9 -3 9 -6
-1 -12 -8 -5 -14 -1 -18 13 l-5 21 -30 -21 -29 -21 -6 21 c-5 20 -7 21 -29 6
-13 -8 -26 -15 -29 -15 -3 0 -5 66 -5 146 l0 145 28 -21 27 -22 3 21z m277
-120 c11 -17 -1 -21 -15 -4 -8 9 -8 15 -2 15 6 0 14 -5 17 -11z m-1038 -295
c-3 -3 -12 -4 -19 -1 -8 3 -5 6 6 6 11 1 17 -2 13 -5z m60 0 c-3 -3 -12 -4
-19 -1 -8 3 -5 6 6 6 11 1 17 -2 13 -5z"/>
<path d="M2620 1196 c0 -8 12 -24 28 -36 25 -20 27 -20 31 -4 2 10 -7 25 -20
35 -29 22 -39 24 -39 5z"/>
<path d="M2690 1147 c0 -9 14 -27 32 -41 l32 -25 -25 -20 c-13 -11 -27 -20
-31 -21 -5 0 -8 -11 -8 -24 0 -25 1 -24 60 16 33 23 60 44 59 47 0 7 -87 71
-105 78 -8 3 -14 -1 -14 -10z"/>
<path d="M2643 1001 c-20 -17 -32 -51 -18 -51 17 0 55 35 55 51 0 24 -9 24
-37 0z"/>
<path d="M2016 1468 c-18 -30 -29 -78 -18 -78 11 0 62 75 62 90 0 19 -29 10
-44 -12z"/>
<path d="M200 1411 c1 -9 6 -28 13 -42 9 -20 17 -25 31 -20 19 7 19 8 0 27
-11 11 -18 26 -16 35 1 9 -4 16 -13 16 -8 0 -15 -7 -15 -16z"/>
<path d="M2403 1385 c-9 -24 1 -27 15 -5 8 13 8 20 2 20 -6 0 -13 -7 -17 -15z"/>
<path d="M3261 1371 c-29 -5 -40 -16 -73 -71 -193 -318 -481 -525 -867 -621
-73 -18 -38 -21 57 -5 139 24 197 42 290 89 81 41 127 69 242 149 108 75 316
304 390 431 23 40 23 40 -39 28z m-351 -436 c-7 -9 -15 -13 -17 -11 -7 7 7 26
19 26 6 0 6 -6 -2 -15z"/>
<path d="M250 1266 c0 -2 8 -10 18 -17 15 -13 16 -12 3 4 -13 16 -21 21 -21
13z"/>
<path d="M370 1243 c0 -5 7 -18 15 -29 12 -16 14 -16 15 -3 0 9 -7 22 -15 29
-8 7 -15 8 -15 3z"/>
<path d="M750 1206 c11 -18 30 -42 42 -52 11 -10 4 5 -16 34 -43 59 -55 68
-26 18z"/>
<path d="M308 1165 c5 -11 22 -30 36 -42 14 -13 26 -30 26 -38 0 -18 51 -85
64 -85 18 0 45 -32 39 -46 -3 -8 0 -14 6 -14 22 0 10 32 -38 98 -26 37 -54 77
-60 90 -6 12 -19 22 -28 22 -9 0 -25 8 -36 18 -19 16 -20 16 -9 -3z"/>
<path d="M420 1155 c0 -11 83 -126 87 -121 7 7 -67 126 -78 126 -5 0 -9 -2 -9
-5z"/>
<path d="M510 929 c0 -12 67 -91 82 -97 5 -2 -10 21 -33 52 -44 59 -49 63 -49
45z"/>
<path d="M1364 765 c57 -43 300 -118 456 -140 99 -13 280 -21 269 -11 -2 2
-67 9 -144 15 -201 17 -308 42 -530 125 -40 15 -62 19 -51 11z"/>
<path d="M2913 660 c-13 -5 -23 -12 -23 -15 0 -10 27 -5 46 10 21 16 11 18
-23 5z"/>
<path d="M2702 638 c-21 -21 -13 -27 18 -15 20 7 25 14 17 19 -16 10 -21 10
-35 -4z"/>
<path d="M2972 551 c-38 -26 -40 -30 -22 -36 13 -4 31 2 55 21 64 49 36 62
-33 15z"/>
<path d="M1818 563 c12 -2 32 -2 45 0 12 2 2 4 -23 4 -25 0 -35 -2 -22 -4z"/>
<path d="M2540 550 l-25 -8 27 -1 c15 -1 30 4 33 9 7 11 0 11 -35 0z"/>
<path d="M800 546 c0 -2 8 -10 18 -17 15 -13 16 -12 3 4 -13 16 -21 21 -21 13z"/>
<path d="M2888 492 c-41 -18 -49 -32 -20 -32 10 0 29 11 42 25 13 14 22 25 19
24 -2 0 -21 -8 -41 -17z"/>
<path d="M880 487 c20 -22 146 -97 159 -95 9 2 -19 23 -64 48 -82 46 -104 57
-95 47z"/>
<path d="M2496 451 c-11 -4 -15 -10 -10 -13 5 -4 18 0 29 8 20 15 12 17 -19 5z"/>
<path d="M2633 450 c-13 -5 -23 -12 -23 -15 0 -10 27 -5 46 10 21 16 11 18
-23 5z"/>
<path d="M2805 449 c-12 -19 5 -23 22 -6 16 16 16 17 1 17 -9 0 -20 -5 -23
-11z"/>
<path d="M2684 390 c-23 -10 -45 -23 -48 -29 -13 -20 20 -12 75 19 60 33 40
40 -27 10z"/>
<path d="M2490 390 c0 -5 5 -10 11 -10 5 0 7 5 4 10 -3 6 -8 10 -11 10 -2 0
-4 -4 -4 -10z"/>
<path d="M1060 381 c0 -23 158 -90 270 -115 41 -10 79 -21 85 -25 5 -5 33 -8
60 -8 49 1 50 1 15 10 -97 25 -228 71 -306 107 -85 39 -124 49 -124 31z"/>
<path d="M2515 360 c-3 -5 -1 -10 4 -10 6 0 11 5 11 10 0 6 -2 10 -4 10 -3 0
-8 -4 -11 -10z"/>
<path d="M2535 330 c-8 -13 15 -13 35 0 12 8 11 10 -7 10 -12 0 -25 -4 -28
-10z"/>
<path d="M1710 320 c0 -5 5 -10 10 -10 6 0 10 5 10 10 0 6 -4 10 -10 10 -5 0
-10 -4 -10 -10z"/>
</g>
</svg>
